# xmcd
#
# Track frame offsets: 
#        150
#        13046
#        34725
#        48936
#        166584
#        211327
#
# Disc length: 4767 seconds
#
# Revision: 2
# Processed by: cddbd v1.5.2PL0 Copyright (c) Steve Scherf et al.
# Submitted via: ExactAudioCopy v1.0b3
#
DISCID=40129d06
DTITLE=Angus MacLise - The Cloud Doctrine [CD1]
DYEAR=2003
DGENRE=Avantgarde
TTITLE0=Tunnel Music 1
TTITLE1=Tunnel Music 2
TTITLE2=Tunnel Music 3
TTITLE3=The First Subtle Cabinet
TTITLE4=Description of a Mandala
TTITLE5=Thunder Cut
EXTD=
EXTT0=
EXTT1=
EXTT2=
EXTT3=
EXTT4=
EXTT5=
PLAYORDER=
